<mxfile host="app.diagrams.net" modified="2022-04-15T02:24:39.440Z" agent="5.0 (Macintosh; Intel Mac OS X 10_15_7) AppleWebKit/537.36 (KHTML, like Gecko) Chrome/100.0.4896.75 Safari/537.36 Edg/100.0.1185.39" etag="PqTLeHGbUNdSuDjSZnht" version="17.4.3" type="github">
  <diagram id="dKijmUOY9irQcvLrScpt" name="Page-1">
    <mxGraphModel dx="970" dy="720" grid="1" gridSize="10" guides="1" tooltips="1" connect="1" arrows="1" fold="1" page="1" pageScale="1" pageWidth="827" pageHeight="1169" math="0" shadow="0">
      <root>
        <mxCell id="0" />
        <mxCell id="1" parent="0" />
        <mxCell id="_bxExrfxqYvHLlEQci2k-3" value="" style="edgeStyle=orthogonalEdgeStyle;rounded=0;orthogonalLoop=1;jettySize=auto;html=1;" edge="1" parent="1" source="_bxExrfxqYvHLlEQci2k-1" target="_bxExrfxqYvHLlEQci2k-2">
          <mxGeometry relative="1" as="geometry" />
        </mxCell>
        <mxCell id="_bxExrfxqYvHLlEQci2k-1" value="光猫" style="rounded=1;whiteSpace=wrap;html=1;" vertex="1" parent="1">
          <mxGeometry x="40" y="380" width="120" height="60" as="geometry" />
        </mxCell>
        <mxCell id="_bxExrfxqYvHLlEQci2k-13" style="edgeStyle=orthogonalEdgeStyle;rounded=0;orthogonalLoop=1;jettySize=auto;html=1;entryX=0;entryY=0.5;entryDx=0;entryDy=0;" edge="1" parent="1" source="_bxExrfxqYvHLlEQci2k-2" target="_bxExrfxqYvHLlEQci2k-12">
          <mxGeometry relative="1" as="geometry" />
        </mxCell>
        <mxCell id="_bxExrfxqYvHLlEQci2k-2" value="AX6&lt;br&gt;（PPPoe，Clash）" style="whiteSpace=wrap;html=1;rounded=1;" vertex="1" parent="1">
          <mxGeometry x="200" y="380" width="120" height="60" as="geometry" />
        </mxCell>
        <mxCell id="_bxExrfxqYvHLlEQci2k-4" value="N1&lt;br&gt;（Adguard，DHCP，DNS，Gayway）" style="whiteSpace=wrap;html=1;rounded=1;" vertex="1" parent="1">
          <mxGeometry x="560" y="530" width="120" height="60" as="geometry" />
        </mxCell>
        <mxCell id="_bxExrfxqYvHLlEQci2k-6" value="MBP" style="whiteSpace=wrap;html=1;rounded=1;" vertex="1" parent="1">
          <mxGeometry x="560" y="330" width="120" height="60" as="geometry" />
        </mxCell>
        <mxCell id="_bxExrfxqYvHLlEQci2k-8" value="PC" style="whiteSpace=wrap;html=1;rounded=1;" vertex="1" parent="1">
          <mxGeometry x="560" y="430" width="120" height="60" as="geometry" />
        </mxCell>
        <mxCell id="_bxExrfxqYvHLlEQci2k-10" value="nas" style="whiteSpace=wrap;html=1;rounded=1;" vertex="1" parent="1">
          <mxGeometry x="560" y="230" width="120" height="60" as="geometry" />
        </mxCell>
        <mxCell id="_bxExrfxqYvHLlEQci2k-14" style="edgeStyle=orthogonalEdgeStyle;rounded=0;orthogonalLoop=1;jettySize=auto;html=1;entryX=0;entryY=0.5;entryDx=0;entryDy=0;" edge="1" parent="1" source="_bxExrfxqYvHLlEQci2k-12" target="_bxExrfxqYvHLlEQci2k-10">
          <mxGeometry relative="1" as="geometry" />
        </mxCell>
        <mxCell id="_bxExrfxqYvHLlEQci2k-15" style="edgeStyle=orthogonalEdgeStyle;rounded=0;orthogonalLoop=1;jettySize=auto;html=1;entryX=0;entryY=0.5;entryDx=0;entryDy=0;" edge="1" parent="1" source="_bxExrfxqYvHLlEQci2k-12" target="_bxExrfxqYvHLlEQci2k-6">
          <mxGeometry relative="1" as="geometry" />
        </mxCell>
        <mxCell id="_bxExrfxqYvHLlEQci2k-16" style="edgeStyle=orthogonalEdgeStyle;rounded=0;orthogonalLoop=1;jettySize=auto;html=1;" edge="1" parent="1" source="_bxExrfxqYvHLlEQci2k-12" target="_bxExrfxqYvHLlEQci2k-8">
          <mxGeometry relative="1" as="geometry" />
        </mxCell>
        <mxCell id="_bxExrfxqYvHLlEQci2k-17" style="edgeStyle=orthogonalEdgeStyle;rounded=0;orthogonalLoop=1;jettySize=auto;html=1;entryX=0;entryY=0.5;entryDx=0;entryDy=0;" edge="1" parent="1" source="_bxExrfxqYvHLlEQci2k-12" target="_bxExrfxqYvHLlEQci2k-4">
          <mxGeometry relative="1" as="geometry" />
        </mxCell>
        <mxCell id="_bxExrfxqYvHLlEQci2k-12" value="交换机" style="rounded=1;whiteSpace=wrap;html=1;" vertex="1" parent="1">
          <mxGeometry x="360" y="380" width="120" height="60" as="geometry" />
        </mxCell>
      </root>
    </mxGraphModel>
  </diagram>
</mxfile>
